<?xml version="1.0" encoding="utf-8"?>

<!-- Generator: Adobe Illustrator 27.5.0, SVG Export Plug-In . SVG Version: 6.00 Build 0)  -->
<svg version="1.1" xmlns="http://www.w3.org/2000/svg" xmlns:xlink="http://www.w3.org/1999/xlink" x="0px" y="0px"
	 viewBox="0 0 500 500" style="enable-background:new 0 0 500 500;" xml:space="preserve">

	 <style>
		.anime{animation: ani 3s infinite  ease-in-out}
		.anime1{animation: ani 4s infinite  ease-in-out}
		.anime2{animation: ani 5s infinite  ease-in-out}
		@keyframes ani{
			0%{transform:translateY(0);}
			50%{transform:translateY(20px);}
			100%{transform:translateY(0);}}
	 </style>

<g id="BACKGROUND">
	<rect style="fill:#fdfcfc;" width="500" height="500"/>
</g>
<g id="OBJECTS">
	<g >
		<g>
			<g>
				<polygon style="fill:#EAF3FB;" points="376.507,312.075 43.943,395.387 43.943,17.946 376.507,101.258 				"/>
			</g>
			<g>
				<polygon style="fill:#EAF3FB;" points="394.264,307.627 385.119,309.918 385.119,103.415 394.264,105.706 				"/>
				<polygon style="fill:#EAF3FB;" points="404.065,282.331 397.024,283.686 397.024,106.398 404.065,108.161 				"/>
				<polygon style="fill:#EAF3FB;" points="413.4,258.236 408.261,258.927 408.261,109.213 413.4,110.5 				"/>
				<polygon style="fill:#EAF3FB;" points="422.302,235.259 418.884,235.52 418.884,111.874 422.302,112.73 				"/>
				<polygon style="fill:#EAF3FB;" points="430.8,213.324 428.942,213.357 428.942,114.394 430.8,114.859 				"/>
			</g>
		</g>
		<g>
			
				<rect x="495.023" y="0" transform="matrix(-1.836970e-16 1 -1 -1.836970e-16 500 -495.0233)" style="fill:#D4E7F6;" width="4.977" height="4.977"/>
			
				<rect x="485.07" y="9.953" transform="matrix(-1.836970e-16 1 -1 -1.836970e-16 500 -475.1162)" style="fill:#D4E7F6;" width="4.977" height="4.977"/>
			
				<rect x="475.116" y="19.907" transform="matrix(-1.836970e-16 1 -1 -1.836970e-16 500 -455.2092)" style="fill:#D4E7F6;" width="4.977" height="4.977"/>
			<rect x="475.116" style="fill:#D4E7F6;" width="4.977" height="4.977"/>
			<rect x="485.07" y="9.953" style="fill:#D4E7F6;" width="4.977" height="4.977"/>
			<rect x="495.023" y="19.907" style="fill:#D4E7F6;" width="4.977" height="4.977"/>
			
				<rect x="485.07" y="30.385" transform="matrix(-1.836970e-16 1 -1 -1.836970e-16 520.4315 -454.6846)" style="fill:#D4E7F6;" width="4.977" height="4.977"/>
			
				<rect x="475.116" y="40.338" transform="matrix(-1.836970e-16 1 -1 -1.836970e-16 520.4315 -434.7777)" style="fill:#D4E7F6;" width="4.977" height="4.977"/>
			<rect x="485.07" y="30.385" style="fill:#D4E7F6;" width="4.977" height="4.977"/>
			<rect x="495.023" y="40.339" style="fill:#D4E7F6;" width="4.977" height="4.977"/>
			
				<rect x="485.07" y="50.711" transform="matrix(-1.836970e-16 1 -1 -1.836970e-16 540.7571 -434.3591)" style="fill:#D4E7F6;" width="4.977" height="4.977"/>
			
				<rect x="475.116" y="60.664" transform="matrix(-1.836970e-16 1 -1 -1.836970e-16 540.7571 -414.4521)" style="fill:#D4E7F6;" width="4.977" height="4.977"/>
			<rect x="485.07" y="50.711" style="fill:#D4E7F6;" width="4.977" height="4.977"/>
			<rect x="495.023" y="60.664" style="fill:#D4E7F6;" width="4.977" height="4.977"/>
			
				<rect x="485.07" y="71.036" transform="matrix(-1.836970e-16 1 -1 -1.836970e-16 561.0826 -414.0335)" style="fill:#D4E7F6;" width="4.977" height="4.977"/>
			
				<rect x="475.116" y="80.99" transform="matrix(-1.836970e-16 1 -1 -1.836970e-16 561.0826 -394.1266)" style="fill:#D4E7F6;" width="4.977" height="4.977"/>
			<rect x="485.07" y="71.036" style="fill:#D4E7F6;" width="4.977" height="4.977"/>
			<rect x="495.023" y="80.99" style="fill:#D4E7F6;" width="4.977" height="4.977"/>
			
				<rect x="485.07" y="91.362" transform="matrix(-1.836970e-16 1 -1 -1.836970e-16 581.4081 -393.708)" style="fill:#D4E7F6;" width="4.977" height="4.977"/>
			
				<rect x="475.116" y="101.315" transform="matrix(-1.836970e-16 1 -1 -1.836970e-16 581.4082 -373.801)" style="fill:#D4E7F6;" width="4.977" height="4.977"/>
			<rect x="485.07" y="91.362" style="fill:#D4E7F6;" width="4.977" height="4.977"/>
			<rect x="495.023" y="101.315" style="fill:#D4E7F6;" width="4.977" height="4.977"/>
			<g>
				
					<rect x="485.07" y="111.269" transform="matrix(-1.836970e-16 1 -1 -1.836970e-16 601.3152 -373.801)" style="fill:#D4E7F6;" width="4.977" height="4.977"/>
				
					<rect x="475.116" y="121.222" transform="matrix(-1.836970e-16 1 -1 -1.836970e-16 601.3152 -353.894)" style="fill:#D4E7F6;" width="4.977" height="4.977"/>
				<rect x="485.07" y="111.269" style="fill:#D4E7F6;" width="4.977" height="4.977"/>
				<rect x="495.023" y="121.222" style="fill:#D4E7F6;" width="4.977" height="4.977"/>
				
					<rect x="485.07" y="131.7" transform="matrix(-1.836970e-16 1 -1 -1.836970e-16 621.7468 -353.3694)" style="fill:#D4E7F6;" width="4.977" height="4.977"/>
				
					<rect x="475.116" y="141.654" transform="matrix(-1.836970e-16 1 -1 -1.836970e-16 621.7468 -333.4624)" style="fill:#D4E7F6;" width="4.977" height="4.977"/>
				<rect x="485.07" y="131.7" style="fill:#D4E7F6;" width="4.977" height="4.977"/>
				<rect x="495.023" y="141.654" style="fill:#D4E7F6;" width="4.977" height="4.977"/>
				
					<rect x="485.07" y="152.026" transform="matrix(-1.836970e-16 1 -1 -1.836970e-16 642.0723 -333.0439)" style="fill:#D4E7F6;" width="4.977" height="4.977"/>
				
					<rect x="475.116" y="161.979" transform="matrix(-1.836970e-16 1 -1 -1.836970e-16 642.0723 -313.1368)" style="fill:#D4E7F6;" width="4.977" height="4.977"/>
				<rect x="485.07" y="152.026" style="fill:#D4E7F6;" width="4.977" height="4.977"/>
				<rect x="495.023" y="161.979" style="fill:#D4E7F6;" width="4.977" height="4.977"/>
				
					<rect x="485.07" y="172.351" transform="matrix(-1.836970e-16 1 -1 -1.836970e-16 662.3979 -312.7183)" style="fill:#D4E7F6;" width="4.977" height="4.977"/>
				
					<rect x="475.116" y="182.305" transform="matrix(-1.836970e-16 1 -1 -1.836970e-16 662.3978 -292.8113)" style="fill:#D4E7F6;" width="4.977" height="4.977"/>
				<rect x="485.07" y="172.351" style="fill:#D4E7F6;" width="4.977" height="4.977"/>
				<rect x="495.023" y="182.305" style="fill:#D4E7F6;" width="4.977" height="4.977"/>
				
					<rect x="485.07" y="192.677" transform="matrix(-1.836970e-16 1 -1 -1.836970e-16 682.7234 -292.3928)" style="fill:#D4E7F6;" width="4.977" height="4.977"/>
				
					<rect x="475.116" y="202.63" transform="matrix(-1.836970e-16 1 -1 -1.836970e-16 682.7234 -272.4857)" style="fill:#D4E7F6;" width="4.977" height="4.977"/>
				<rect x="485.07" y="192.677" style="fill:#D4E7F6;" width="4.977" height="4.977"/>
				<rect x="495.023" y="202.63" style="fill:#D4E7F6;" width="4.977" height="4.977"/>
			</g>
		</g>
		<g>
			<g>
				
					<rect x="0" y="401.109" transform="matrix(-1.836970e-16 1 -1 -1.836970e-16 408.6065 401.1088)" style="fill:#D4E7F6;" width="7.498" height="7.498"/>
				
					<rect x="29.991" y="401.109" transform="matrix(-1.836970e-16 1 -1 -1.836970e-16 438.5974 371.1179)" style="fill:#D4E7F6;" width="7.498" height="7.498"/>
				
					<rect x="14.995" y="416.104" transform="matrix(-1.836970e-16 1 -1 -1.836970e-16 438.5974 401.1088)" style="fill:#D4E7F6;" width="7.498" height="7.498"/>
				
					<rect x="29.991" y="431.1" transform="matrix(-1.836970e-16 1 -1 -1.836970e-16 468.5883 401.1088)" style="fill:#D4E7F6;" width="7.498" height="7.498"/>
				
					<rect x="14.995" y="416.104" transform="matrix(-1 -1.224647e-16 1.224647e-16 -1 37.4886 839.7062)" style="fill:#D4E7F6;" width="7.498" height="7.498"/>
				
					<rect y="431.1" transform="matrix(-1 -1.224647e-16 1.224647e-16 -1 7.4977 869.6971)" style="fill:#D4E7F6;" width="7.498" height="7.498"/>
				
					<rect x="14.995" y="446.885" transform="matrix(-1.836970e-16 1 -1 -1.836970e-16 469.3785 431.89)" style="fill:#D4E7F6;" width="7.498" height="7.498"/>
				
					<rect x="29.991" y="461.881" transform="matrix(-1.836970e-16 1 -1 -1.836970e-16 499.3694 431.89)" style="fill:#D4E7F6;" width="7.498" height="7.498"/>
				
					<rect x="14.995" y="446.885" transform="matrix(-1 -1.224647e-16 1.224647e-16 -1 37.4886 901.2685)" style="fill:#D4E7F6;" width="7.498" height="7.498"/>
				
					<rect y="461.881" transform="matrix(-1 -1.224647e-16 1.224647e-16 -1 7.4977 931.2594)" style="fill:#D4E7F6;" width="7.498" height="7.498"/>
			</g>
			<g>
				
					<rect x="59.836" y="401.109" transform="matrix(-1.836970e-16 1 -1 -1.836970e-16 468.4421 341.2732)" style="fill:#D4E7F6;" width="7.498" height="7.498"/>
				
					<rect x="44.84" y="416.104" transform="matrix(-1.836970e-16 1 -1 -1.836970e-16 468.4421 371.2641)" style="fill:#D4E7F6;" width="7.498" height="7.498"/>
				
					<rect x="59.836" y="431.1" transform="matrix(-1.836970e-16 1 -1 -1.836970e-16 498.433 371.2641)" style="fill:#D4E7F6;" width="7.498" height="7.498"/>
				
					<rect x="44.84" y="416.104" transform="matrix(-1 -1.224647e-16 1.224647e-16 -1 97.178 839.7062)" style="fill:#D4E7F6;" width="7.498" height="7.498"/>
				
					<rect x="44.84" y="446.885" transform="matrix(-1.836970e-16 1 -1 -1.836970e-16 499.2232 402.0453)" style="fill:#D4E7F6;" width="7.498" height="7.498"/>
				
					<rect x="59.836" y="461.881" transform="matrix(-1.836970e-16 1 -1 -1.836970e-16 529.2142 402.0453)" style="fill:#D4E7F6;" width="7.498" height="7.498"/>
				
					<rect x="44.84" y="446.885" transform="matrix(-1 -1.224647e-16 1.224647e-16 -1 97.178 901.2685)" style="fill:#D4E7F6;" width="7.498" height="7.498"/>
			</g>
			<g>
				
					<rect x="89.826" y="401.109" transform="matrix(-1.836970e-16 1 -1 -1.836970e-16 498.433 311.2823)" style="fill:#D4E7F6;" width="7.498" height="7.498"/>
				
					<rect x="74.831" y="416.104" transform="matrix(-1.836970e-16 1 -1 -1.836970e-16 498.433 341.2733)" style="fill:#D4E7F6;" width="7.498" height="7.498"/>
				
					<rect x="89.826" y="431.1" transform="matrix(-1.836970e-16 1 -1 -1.836970e-16 528.4239 341.2732)" style="fill:#D4E7F6;" width="7.498" height="7.498"/>
				
					<rect x="74.831" y="416.104" transform="matrix(-1 -1.224647e-16 1.224647e-16 -1 157.1597 839.7062)" style="fill:#D4E7F6;" width="7.498" height="7.498"/>
				
					<rect x="74.831" y="446.885" transform="matrix(-1.836970e-16 1 -1 -1.836970e-16 529.2141 372.0544)" style="fill:#D4E7F6;" width="7.498" height="7.498"/>
				
					<rect x="89.826" y="461.881" transform="matrix(-1.836970e-16 1 -1 -1.836970e-16 559.2051 372.0544)" style="fill:#D4E7F6;" width="7.498" height="7.498"/>
				
					<rect x="74.831" y="446.885" transform="matrix(-1 -1.224647e-16 1.224647e-16 -1 157.1597 901.2685)" style="fill:#D4E7F6;" width="7.498" height="7.498"/>
			</g>
			<g>
				
					<rect x="119.671" y="401.109" transform="matrix(-1.836970e-16 1 -1 -1.836970e-16 528.2777 281.4376)" style="fill:#D4E7F6;" width="7.498" height="7.498"/>
				
					<rect x="104.676" y="416.104" transform="matrix(-1.836970e-16 1 -1 -1.836970e-16 528.2777 311.4285)" style="fill:#D4E7F6;" width="7.498" height="7.498"/>
				
					<rect x="119.671" y="431.1" transform="matrix(-1.836970e-16 1 -1 -1.836970e-16 558.2686 311.4285)" style="fill:#D4E7F6;" width="7.498" height="7.498"/>
				
					<rect x="104.676" y="416.104" transform="matrix(-1 -1.224647e-16 1.224647e-16 -1 216.8492 839.7062)" style="fill:#D4E7F6;" width="7.498" height="7.498"/>
				
					<rect x="104.676" y="446.885" transform="matrix(-1.836970e-16 1 -1 -1.836970e-16 559.0588 342.2097)" style="fill:#D4E7F6;" width="7.498" height="7.498"/>
				
					<rect x="119.671" y="461.881" transform="matrix(-1.836970e-16 1 -1 -1.836970e-16 589.0497 342.2097)" style="fill:#D4E7F6;" width="7.498" height="7.498"/>
				
					<rect x="104.676" y="446.885" transform="matrix(-1 -1.224647e-16 1.224647e-16 -1 216.8492 901.2685)" style="fill:#D4E7F6;" width="7.498" height="7.498"/>
			</g>
		</g>
		<g>
			<g>
				<polygon style="fill:#EAF3FB;" points="348.816,37.22 338.962,37.22 351.389,49.647 338.962,62.074 348.816,62.074 
					361.243,49.647 				"/>
			</g>
			<g>
				<polygon style="fill:#EAF3FB;" points="368.524,37.22 358.67,37.22 371.097,49.647 358.67,62.074 368.524,62.074 
					380.951,49.647 				"/>
			</g>
			<g>
				<polygon style="fill:#EAF3FB;" points="388.232,37.22 378.378,37.22 390.805,49.647 378.378,62.074 388.232,62.074 
					400.659,49.647 				"/>
			</g>
		</g>
		<g>
			<g>
				<polygon style="fill:#EAF3FB;" points="287.54,470.164 275.113,482.59 284.967,482.59 297.394,470.164 				"/>
			</g>
			<g>
				<polygon style="fill:#EAF3FB;" points="307.248,470.164 294.821,482.59 304.676,482.59 317.102,470.164 				"/>
			</g>
			<g>
				<polygon style="fill:#EAF3FB;" points="168.049,470.164 155.622,482.59 265.259,482.59 277.686,470.164 				"/>
			</g>
			<g>
				<polygon style="fill:#EAF3FB;" points="326.956,470.164 314.529,482.59 324.384,482.59 336.81,470.164 				"/>
			</g>
		</g>
	</g>
	<g>
		<g>
			<g>
				<path style="fill:#242034;" d="M438.316,321.72c16.332,5.403,25.586,11.552,25.586,18.077c0,21.517-100.471,38.96-224.409,38.96
					c-70.887,0-134.086-5.708-175.211-14.619c32.842,15.378,110.897,26.196,201.975,26.196c120.713,0,218.571-19.001,218.571-42.439
					C484.828,338.018,467.453,328.93,438.316,321.72z"/>
			</g>
			<ellipse style="fill:#242034;" cx="251.906" cy="347.894" rx="204.22" ry="42.439"/>
		</g>
		<g>
			<g>
				<path style="fill:#242034;" d="M137.879,292.691c9.698,13.815,51.423,29.049,79.571,6.399
					c16.937-13.629,37.16-37.625,50.019-60.586c19.315-34.487,0.341-60.595-36.386-41.248
					C184.804,221.634,121.005,268.652,137.879,292.691z"/>
				<g>
					<path style="fill:#474A68;" d="M161.87,305.697l-0.142-0.99c0.007-0.001,0.699-0.102,1.941-0.374l0.215,0.977
						C162.601,305.592,161.899,305.693,161.87,305.697z M165.852,304.838l-0.25-0.969c0.583-0.15,1.224-0.323,1.919-0.524
						l0.277,0.961C167.093,304.509,166.442,304.685,165.852,304.838z M169.727,303.72l-0.302-0.953
						c0.601-0.19,1.231-0.398,1.89-0.624l0.325,0.945C170.974,303.317,170.336,303.527,169.727,303.72z M173.536,302.41
						l-0.347-0.938c0.601-0.223,1.221-0.46,1.859-0.711l0.367,0.93C174.771,301.946,174.144,302.185,173.536,302.41z
						 M177.28,300.932l-0.388-0.922c0.597-0.251,1.207-0.514,1.828-0.79l0.406,0.914
						C178.498,300.412,177.882,300.679,177.28,300.932z M180.955,299.299l-0.425-0.906c0.589-0.275,1.187-0.564,1.794-0.862
						l0.442,0.896C182.154,298.729,181.549,299.02,180.955,299.299z M184.561,297.521l-0.46-0.889c0.58-0.3,1.166-0.611,1.76-0.932
						l0.476,0.879C185.738,296.903,185.145,297.217,184.561,297.521z M188.095,295.603l-0.493-0.869
						c0.569-0.323,1.144-0.655,1.722-0.998l0.51,0.859C189.249,294.942,188.669,295.278,188.095,295.603z M191.553,293.557
						l-0.525-0.852c0.558-0.344,1.12-0.698,1.685-1.061l0.54,0.842C192.683,292.853,192.116,293.209,191.553,293.557z
						 M194.934,291.384l-0.556-0.832c0.545-0.364,1.094-0.737,1.645-1.12l0.57,0.82
						C196.037,290.639,195.484,291.016,194.934,291.384z M198.233,289.091l-0.585-0.81c0.533-0.384,1.067-0.777,1.604-1.18
						l0.6,0.801C199.311,288.308,198.771,288.703,198.233,289.091z M201.449,286.683l-0.613-0.789
						c0.519-0.404,1.04-0.815,1.563-1.235l0.627,0.779C202.498,285.861,201.973,286.276,201.449,286.683z M204.579,284.165
						l-0.641-0.768c0.505-0.421,1.012-0.851,1.519-1.288l0.653,0.758C205.598,283.309,205.088,283.74,204.579,284.165z
						 M207.62,281.542l-0.666-0.746c0.491-0.439,0.983-0.886,1.476-1.339l0.677,0.736C208.611,280.65,208.115,281.1,207.62,281.542z
						 M210.571,278.82l-0.689-0.725c0.477-0.454,0.953-0.916,1.43-1.386l0.701,0.713
						C211.532,277.897,211.051,278.362,210.571,278.82z M213.431,276.001l-0.713-0.701c0.461-0.47,0.923-0.947,1.385-1.432
						l0.724,0.689C214.362,275.046,213.896,275.527,213.431,276.001z M216.199,273.092l-0.735-0.678
						c0.446-0.484,0.893-0.976,1.338-1.475l0.746,0.666C217.098,272.108,216.649,272.603,216.199,273.092z M218.873,270.097
						l-0.756-0.654c0.431-0.498,0.862-1.003,1.291-1.516l0.767,0.643C219.741,269.086,219.308,269.595,218.873,270.097z
						 M221.454,267.022l-0.776-0.631c0.416-0.512,0.832-1.03,1.246-1.555l0.784,0.619
						C222.29,265.984,221.873,266.507,221.454,267.022z M223.938,263.87l-0.794-0.607c0.401-0.523,0.8-1.054,1.199-1.591
						l0.803,0.596C224.745,262.809,224.342,263.343,223.938,263.87z M226.33,260.647l-0.811-0.584
						c0.385-0.535,0.77-1.077,1.153-1.625l0.819,0.572C227.105,259.563,226.718,260.108,226.33,260.647z M228.628,257.357
						l-0.827-0.56c0.37-0.546,0.739-1.099,1.105-1.657l0.836,0.549C229.373,256.251,229.001,256.808,228.628,257.357z
						 M230.833,254.005l-0.843-0.537c0.355-0.558,0.709-1.12,1.061-1.688l0.85,0.527
						C231.547,252.879,231.191,253.445,230.833,254.005z M232.946,250.595l-0.857-0.516c0.34-0.565,0.679-1.137,1.015-1.714
						l0.864,0.503C233.63,249.449,233.289,250.024,232.946,250.595z M234.967,247.129l-0.87-0.492
						c0.325-0.575,0.649-1.155,0.971-1.741l0.876,0.482C235.62,245.967,235.294,246.551,234.967,247.129z M236.899,243.613
						l-0.883-0.471c0.31-0.583,0.62-1.171,0.927-1.765l0.889,0.459C237.523,242.434,237.212,243.026,236.899,243.613z
						 M238.742,240.05l-0.894-0.448c0.296-0.591,0.591-1.187,0.884-1.788l0.898,0.438
						C239.337,238.857,239.04,239.456,238.742,240.05z M240.541,236.355l-0.946-0.34l0.042-0.089L240.541,236.355z"/>
				</g>
				<g>
					<path style="fill:#474A68;" d="M164.904,310.613l-0.205-0.979c0.009-0.002,0.688-0.146,1.924-0.486l0.266,0.965
						C165.605,310.467,164.904,310.613,164.904,310.613z M168.829,309.545l-0.295-0.955c0.576-0.178,1.21-0.381,1.897-0.611
						l0.317,0.949C170.053,309.16,169.412,309.365,168.829,309.545z M172.652,308.267l-0.339-0.941
						c0.594-0.214,1.218-0.445,1.868-0.693l0.357,0.934C173.881,307.816,173.252,308.051,172.652,308.267z M176.411,306.827
						l-0.376-0.928c0.595-0.24,1.208-0.496,1.839-0.767l0.394,0.92C177.63,306.325,177.011,306.583,176.411,306.827z
						 M180.108,305.245l-0.409-0.912c0.591-0.266,1.195-0.543,1.81-0.832l0.426,0.904
						C181.314,304.698,180.705,304.978,180.108,305.245z M183.747,303.534l-0.441-0.897c0.584-0.288,1.178-0.587,1.781-0.896
						l0.455,0.891C184.935,302.943,184.336,303.244,183.747,303.534z M187.322,301.698l-0.472-0.881
						c0.576-0.309,1.159-0.627,1.749-0.955l0.485,0.875C188.491,301.067,187.903,301.388,187.322,301.698z M190.832,299.745
						l-0.5-0.865c0.567-0.328,1.139-0.666,1.716-1.012l0.515,0.857C191.981,299.075,191.404,299.415,190.832,299.745z
						 M194.277,297.676l-0.529-0.848c0.557-0.348,1.118-0.704,1.684-1.068l0.541,0.842
						C195.403,296.968,194.838,297.326,194.277,297.676z M197.652,295.496l-0.557-0.83c0.546-0.366,1.095-0.739,1.647-1.122
						l0.569,0.822C198.756,294.751,198.202,295.128,197.652,295.496z M200.954,293.21l-0.583-0.813
						c0.535-0.383,1.071-0.775,1.61-1.174l0.596,0.803C202.034,292.43,201.492,292.823,200.954,293.21z M204.18,290.817
						l-0.608-0.793c0.523-0.401,1.046-0.81,1.572-1.226l0.62,0.785C205.234,290.002,204.706,290.414,204.18,290.817z
						 M207.328,288.324l-0.634-0.773c0.51-0.417,1.021-0.842,1.531-1.274l0.646,0.764
						C208.356,287.477,207.842,287.903,207.328,288.324z M210.395,285.732l-0.657-0.754c0.497-0.433,0.994-0.873,1.491-1.321
						l0.669,0.744C211.396,284.852,210.895,285.296,210.395,285.732z M213.378,283.045l-0.682-0.732
						c0.483-0.449,0.966-0.905,1.449-1.368l0.692,0.721C214.352,282.132,213.865,282.592,213.378,283.045z M216.275,280.264
						l-0.703-0.711c0.469-0.464,0.937-0.935,1.404-1.412l0.715,0.699C217.22,279.321,216.748,279.796,216.275,280.264z
						 M219.084,277.395l-0.726-0.688c0.455-0.479,0.908-0.965,1.36-1.456l0.735,0.678
						C219.998,276.424,219.541,276.913,219.084,277.395z M221.802,274.44l-0.746-0.666c0.439-0.492,0.877-0.991,1.314-1.497
						l0.757,0.654C222.686,273.44,222.245,273.943,221.802,274.44z M224.428,271.402l-0.767-0.643
						c0.424-0.506,0.847-1.018,1.268-1.536l0.776,0.631C225.281,270.377,224.855,270.893,224.428,271.402z M226.958,268.287
						l-0.785-0.619c0.408-0.519,0.815-1.043,1.221-1.574l0.795,0.607C227.78,267.236,227.37,267.765,226.958,268.287z
						 M229.395,265.097l-0.804-0.596c0.393-0.53,0.784-1.067,1.174-1.609l0.812,0.584
						C230.184,264.022,229.79,264.563,229.395,265.097z M231.734,261.834l-0.821-0.57c0.377-0.542,0.752-1.09,1.125-1.645
						l0.83,0.559C232.492,260.736,232.114,261.288,231.734,261.834z M233.977,258.507l-0.837-0.547
						c0.361-0.553,0.72-1.111,1.077-1.676l0.846,0.533C234.702,257.388,234.34,257.95,233.977,258.507z M236.122,255.114
						l-0.853-0.521c0.345-0.564,0.688-1.132,1.028-1.706l0.86,0.51C236.815,253.975,236.47,254.547,236.122,255.114z
						 M238.17,251.664l-0.867-0.498c0.329-0.573,0.656-1.151,0.98-1.734l0.874,0.486
						C238.831,250.505,238.501,251.087,238.17,251.664z M240.121,248.157l-0.881-0.474c0.313-0.582,0.624-1.169,0.933-1.761
						l0.887,0.462C240.748,246.98,240.436,247.571,240.121,248.157z M241.974,244.598l-0.893-0.45
						c0.297-0.59,0.592-1.185,0.884-1.786l0.899,0.438C242.57,243.404,242.273,244.003,241.974,244.598z M243.731,240.99
						l-0.905-0.426c0.282-0.598,0.561-1.201,0.837-1.81l0.91,0.415C244.294,239.781,244.014,240.388,243.731,240.99z"/>
				</g>
			</g>
			<g>
				<g>
					<path style="fill:#E7392C;" d="M145.962,167.168c7.559-4.281,25.294,16.133,33.983,31.375
						c8.69,15.242,17.607,33.455,7.689,39.574c-9.918,6.118-27.997-12.383-34.805-25.172
						C142.023,192.645,138.404,171.449,145.962,167.168z"/>
					<path style="fill:#E7392C;" d="M172.579,215.03c10.83-4.24,37.938,5.454,45.038,14.193c7.1,8.739-3.071,14.705-15.057,13.298
						c-11.986-1.407-27.544-0.106-34.154-8.027C161.797,226.573,163.102,218.74,172.579,215.03z"/>
				</g>
				<path style="fill:#2E8BD1;" d="M116.197,152.908c6.738-4.725,37.635-3.258,62.962,36.614c0,0-10.206,10.766-35.013,22.247
					C144.146,211.769,96.388,166.801,116.197,152.908z"/>
			</g>
			<g>
				<g>
					<path style="fill:#2E8BD1;" d="M44.008,195.02c-13.094,46.547,24.704,132.16,44.939,137.908
						c40.625,11.541,139.057-62.736,115.768-93.705c-13.412-17.835-38.485-25.374-38.485-25.374
						c4.176-14.342-22.877-61.185-43.046-62.761C93.106,148.737,48.899,177.635,44.008,195.02z"/>
					<path style="fill:#5DA5DB;" d="M147.857,216.203l-22.513,13.942c-10.461,5.99-23.968,2.617-31.018-7.747l0,0
						c-7.878-11.582-4.619-27.206,7.071-33.9l22.513-13.942c10.461-5.99,23.968-2.617,31.018,7.747l0,0
						C162.807,193.885,159.548,209.509,147.857,216.203z"/>
					
						<ellipse transform="matrix(0.172 -0.9851 0.9851 0.172 -104.9705 366.469)" style="fill:#5DA5DB;" cx="165.508" cy="245.676" rx="26.535" ry="32.167"/>
				</g>
				<g>
					<g>
						<path style="fill:#85BBE4;" d="M89.075,187.45l-0.165-0.986c14.232-2.388,27.22-11.82,33.893-24.616l0.887,0.463
							C116.874,175.378,103.611,185.011,89.075,187.45z"/>
					</g>
				</g>
				<g>
					<path style="fill:#85BBE4;" d="M118.364,155.787l-0.327-0.945c4.514-1.56,9.224-2.295,13.997-2.198l-0.021,1
						C127.347,153.538,122.765,154.265,118.364,155.787z"/>
				</g>
			</g>
			<g>
				
					<ellipse transform="matrix(0.7546 -0.6561 0.6561 0.7546 -44.0844 78.1381)" style="fill:#2E2844;" cx="82.434" cy="98.013" rx="13.65" ry="19.747"/>
				<path style="fill:#2E2844;" d="M45.678,137.729c5.964-3.916,7.002-12.872,2.319-20.005s-13.314-9.74-19.278-5.824
					c-5.964,3.916-7.002,12.872-2.319,20.005C31.083,139.037,39.714,141.645,45.678,137.729z"/>
				<path style="fill:#2E2844;" d="M61.785,147.19c-0.953-4.53-4.35-7.65-7.586-6.969c-3.237,0.681-5.088,4.905-4.135,9.435
					c0.953,4.53,4.35,7.65,7.586,6.969C60.887,155.944,62.738,151.72,61.785,147.19z"/>
				<g>
					<path style="fill:#EC655B;" d="M117.328,158.587c-1.465-3.456-8.51-3.872-17.486-1.556l-8.14-29.971l-38.356,12.436
						l19.553,31.102c-4.494,3.897-6.768,7.678-5.668,10.273c2.041,4.815,14.91,3.73,28.744-2.424
						C109.809,172.295,119.369,163.402,117.328,158.587z"/>
					<path style="fill:#E7392C;" d="M95.199,178.786c0.259-0.112,0.517-0.222,0.776-0.337c13.834-6.154,23.394-15.046,21.352-19.861
						c-1.465-3.456-8.51-3.872-17.486-1.556l-7.931-29.201l-24.754,20.324C67.157,148.155,111.541,162.279,95.199,178.786z"/>
				</g>
				<path style="fill:#2E2844;" d="M33.53,108.548c4.52,3.846,12.759,1.587,18.402-5.046c5.643-6.632,6.553-15.127,2.032-18.972
					c-4.52-3.846-12.759-1.586-18.402,5.046C29.92,96.208,29.01,104.702,33.53,108.548z"/>
				<path style="fill:#EC655B;" d="M92.479,157.659c7.016-3.068,16.829-16.382,5.503-38.553c-2.487-4.868-1.099-7.967-2.657-12.631
					c-6.873-20.57-26.789-31.323-50.739-14.927c-23.861,16.335,1.065,50.94,13.131,47.578
					C63.116,160.751,80.103,163.07,92.479,157.659z"/>
				<path style="fill:#E7392C;" d="M97.982,119.106c-2.025-3.964-1.481-6.756-2.051-10.174c-2.49,1.295-5.918,3.665-6.163,6.996
					c-0.388,5.271,3.399,9.665,3.399,9.665l3.913-0.696c0,0,0.556,4.618-3.062,5.918c0,0,8.658,17.039,0.727,25.721
					C101.46,152.237,108.152,139.012,97.982,119.106z"/>
				<path style="fill:#2E2844;" d="M49.109,138.211c3.239-2.127,3.346-7.688,0.238-12.421c-3.108-4.733-8.253-6.846-11.492-4.719
					c-3.239,2.127-3.346,7.688-0.238,12.421C40.724,138.225,45.87,140.338,49.109,138.211z"/>
				
					<ellipse transform="matrix(0.8359 -0.5489 0.5489 0.8359 -57.8274 40.7422)" style="fill:#2E2844;" cx="39.227" cy="117.087" rx="9.064" ry="13.245"/>
				<path style="fill:#EC655B;" d="M53.696,132.857c0,0-7.199-4.699-9.963,0.867c-3.089,6.222,9.718,14.677,13.984,5.402
					L53.696,132.857z"/>
				
					<ellipse transform="matrix(0.0696 -0.9976 0.9976 0.0696 -43.384 132.0639)" style="fill:#2E2844;" cx="49.111" cy="89.291" rx="20.197" ry="29.218"/>
				<path style="fill:#2E2844;" d="M60.512,116.075c2.277-4.434-1.596-10.965-8.65-14.587c-7.054-3.622-14.618-2.963-16.895,1.471
					c-2.277,4.434,1.596,10.965,8.651,14.587S58.235,120.509,60.512,116.075z"/>
				<path style="fill:#2E2844;" d="M59.42,134.873c2.392-1.571,1.699-6.854-1.549-11.8c-3.248-4.946-7.82-7.683-10.213-6.112
					c-2.393,1.571-1.699,6.854,1.549,11.801S57.027,136.444,59.42,134.873z"/>
				<path style="fill:#2E2844;" d="M89.42,112.834l10.096-0.712c0,0-1.166-3.627-4.494-3.532
					C91.694,108.685,89.42,112.834,89.42,112.834z"/>
				<path style="fill:#2E2844;" d="M73.149,120.167l8.826-5.992c0,0-3.206-1.936-6.599,0.032
					C71.983,116.176,73.149,120.167,73.149,120.167z"/>
				<path style="fill:#2E2844;" d="M82.066,121.185c0.27,1.284-0.035,2.436-0.681,2.572c-0.646,0.136-1.389-0.795-1.659-2.08
					c-0.27-1.284,0.035-2.436,0.681-2.572C81.053,118.969,81.796,119.9,82.066,121.185z"/>
				<path style="fill:#2E2844;" d="M95.402,118.061c0.27,1.285-0.035,2.436-0.681,2.572c-0.646,0.136-1.389-0.795-1.659-2.08
					c-0.27-1.284,0.035-2.436,0.681-2.572C94.389,115.846,95.132,116.777,95.402,118.061z"/>
				<g>
					<path style="fill:#EC655B;" d="M99.289,139.891c-0.014,2.737-1.254,4.95-2.771,4.943c-1.517-0.007-2.735-2.233-2.722-4.97
						c0.014-2.737,1.254-4.951,2.771-4.943C98.084,134.928,99.302,137.154,99.289,139.891z"/>
					<path style="fill:#2E2844;" d="M98.478,140.345c0.466,2.216-0.151,4.222-1.379,4.48s-2.601-1.329-3.067-3.545
						c-0.466-2.216,0.151-4.222,1.379-4.48C96.639,136.542,98.012,138.129,98.478,140.345z"/>
				</g>
				<path style="fill:#F39B95;" d="M82.917,135.271c-0.831-3.952-4.356-6.556-7.873-5.816c-3.516,0.74-5.693,4.543-4.862,8.495
					c0.831,3.952,4.356,6.556,7.873,5.816S83.748,139.224,82.917,135.271z"/>
				<path style="fill:#E7392C;" d="M52.242,134.252c0,0-1.11-0.771-3.787,0.289c-2.677,1.06-0.502,6.225,4.83,3.825L52.242,134.252z
					"/>
			</g>
			<g>
				<path style="fill:#EC655B;" d="M205.477,221.122c0,0,19.762-0.287,22.349,2.133c2.588,2.42,4.78,16.371,3.978,18.91
					c-0.802,2.539-6.866,7.591-9.663,7.702c-2.798,0.111-12.798,0.681-12.798,0.681s2.932-6.004,7.314-3.318l7.157-12.475
					c0,0-4.781,5.99-10.413,6.034L205.477,221.122z"/>
				<path style="fill:#2E2844;" d="M222.576,244.385c0,0-11.318,2.135-19.999,5.827c-8.681,3.692-18.646,11.703-18.646,11.703
					c-1.995,0.905-4.347,0.021-5.252-1.974l-5.104-11.25c-0.905-1.995-0.021-4.347,1.974-5.252l19.486-8.84l19.158-8.691
					c1.995-0.905,4.347-0.021,5.252,1.974l5.104,11.25C225.455,241.128,224.571,243.48,222.576,244.385z"/>
				<path style="fill:#242034;" d="M192.974,237.711l-8.821,4.093c-1.124,0.521-1.613,1.856-1.091,2.98l4.093,8.821
					c0.521,1.124,1.856,1.613,2.98,1.091l8.821-4.093c1.124-0.522,1.613-1.856,1.091-2.98l-4.093-8.821
					C195.432,237.678,194.098,237.19,192.974,237.711z"/>
				<g>
					<path style="fill:#313455;" d="M192.642,238.657l-8.014,3.718c-0.86,0.399-1.234,1.42-0.835,2.28l3.718,8.014
						c0.399,0.86,1.42,1.234,2.28,0.835l8.014-3.718c0.86-0.399,1.234-1.42,0.835-2.28l-3.718-8.014
						C194.523,238.631,193.502,238.258,192.642,238.657z"/>
					<path style="fill:#565873;" d="M189.5,251.915l-3.835-8.266c-0.154-0.331-0.196-0.685-0.143-1.021
						c-0.778,0.372-1.115,1.3-0.751,2.084l3.413,7.357c0.366,0.79,1.303,1.133,2.093,0.766l0.115-0.053
						C190.013,252.614,189.688,252.32,189.5,251.915z"/>
				</g>
				<path style="fill:#242034;" d="M214.563,227.941l-8.777,4.072c-1.119,0.519-1.606,1.848-1.087,2.967l4.072,8.777
					c0.519,1.12,1.848,1.606,2.967,1.087l8.777-4.072c1.119-0.519,1.606-1.848,1.087-2.967l-4.072-8.778
					C217.01,227.908,215.682,227.422,214.563,227.941z"/>
				<g>
					<path style="fill:#313455;" d="M214.256,228.909l-7.957,3.692c-0.854,0.396-1.225,1.41-0.829,2.264l3.692,7.957
						c0.396,0.854,1.41,1.225,2.264,0.829l7.957-3.692c0.854-0.396,1.225-1.41,0.829-2.264l-3.692-7.957
						C216.124,228.884,215.11,228.513,214.256,228.909z"/>
					<path style="fill:#565873;" d="M211.146,242.053l-3.808-8.208c-0.153-0.329-0.194-0.68-0.142-1.014
						c-0.773,0.369-1.107,1.291-0.746,2.069l3.389,7.305c0.364,0.784,1.294,1.125,2.078,0.761l0.114-0.053
						C211.655,242.748,211.333,242.456,211.146,242.053z"/>
				</g>
				<path style="fill:#EC655B;" d="M201.844,226.556c0,0,1.563,4.405,5.934,2.422c4.372-1.983,3.052-5.706,3.052-5.706
					s-1.648-7.967-6.202-6.522C198.73,218.623,201.844,226.556,201.844,226.556z"/>
				<path style="fill:#F39B95;" d="M207.828,217.719c0.15,0.713-0.929,1.543-2.41,1.854c-1.481,0.311-2.803-0.014-2.953-0.726
					c-0.15-0.713,0.929-1.543,2.41-1.854C206.357,216.681,207.679,217.006,207.828,217.719z"/>
				<path style="fill:#E7392C;" d="M209.908,224.364c0.726,1.85-0.399,4.023-2.514,4.853s-4.417,0.003-5.144-1.847
					c0,0,0.861,0.817,4.098-0.328C209.416,225.958,209.908,224.364,209.908,224.364z"/>
				<path style="fill:#EC655B;" d="M222.864,222.323c0,0-2.644,5.779-2.117,13.219c0,0-5.517,1.46-4.858,6.334
					c0,0,5.567-0.255,7.238-1.885c3.37-3.289,4.124-7.806,4.284-11.105C227.657,223.811,222.864,222.323,222.864,222.323z"/>
				<path style="fill:#EC655B;" d="M220.423,242.557c0,0-4.303-0.519-4.756,3.504c0,0,3.517,0.662,5.257,0.639
					c1.18-0.489,5.24-2.909,7.537-4.505c2.343-1.628,1.063-3.552,1.063-3.552c-0.909-1.708-3.123-2.377-4.533-0.996L220.423,242.557
					z"/>
			</g>
			<g>
				<g>
					<path style="fill:#EC655B;" d="M69.531,300.812c11.768-3.476,16.364-31.854,12.528-58.01
						c-3.835-26.156-12.179-46.926-29.489-40.831c-17.31,6.095-15.39,39.12-10.777,59.172
						C46.406,281.195,53.646,305.505,69.531,300.812z"/>
					<g>
						<path style="fill:#EC655B;" d="M54.941,288.091c1.416,14.33,12.074,16.014,21.185,13.072
							c17.027-5.498,69.166-30.27,75.751-33.837c7.966-4.315,1.707-17.179,1.707-17.179S52.66,265.009,54.941,288.091z"/>
						<path style="fill:#F39B95;" d="M145.788,254.537c-0.887-2.697-28.697,4.021-47.059,10.055
							c-18.361,6.035-20.32,9.101-19.434,11.798c0.886,2.697,4.283,4.004,22.644-2.031
							C120.301,268.324,146.674,257.234,145.788,254.537z"/>
						<path style="fill:#EC655B;" d="M146.143,252.19c0,0,2.184,12.823,9.248,16.666c4.224,2.298,15.141,3.846,15.848,3.685
							c0.707-0.161,2.342-1.363,2.342-1.363c1.491,0.327,5.484,0.758,6.172,0.624c2.378-0.462,5.302-3.397,7.073-8.038
							c1.41-3.695,1.01-8.768,1.01-8.768l6.466,0.212l7.821-3.19c0,0,0.388-3.656-2.486-4.477c-2.686-0.768-4.975,1.977-4.975,1.977
							s-7.708-2.691-13.01-3.234c-5.302-0.542-16.016-0.459-16.016-0.459S153.657,244.697,146.143,252.19z"/>
						<path style="fill:#EC655B;" d="M152.822,247.904c0,0,12.359-7.533,15.59-8.348c3.231-0.815,15.2-4.269,15.2-4.269l8.224,3.271
							c0,0-1.663,7.116-8.651,3.064c-2.141,1.769-4.565,2.441-7.573,2.646c-0.861,2.97-2.669,3.506-4.046,4.281
							C168.471,250.291,152.822,247.904,152.822,247.904z"/>
						<path style="fill:#F39B95;" d="M183.294,260.129c-0.63,3.927-2.258,6.959-10.961,5.562c-8.702-1.397-16.747-5.982-16.117-9.91
							c0.631-3.927,9.697-5.71,18.4-4.313C183.319,252.866,183.925,256.202,183.294,260.129z"/>
						<path style="fill:#F39B95;" d="M156.571,247.237c0.291,0.775,5.618,0.905,9.183-0.435c3.565-1.339,4.017-3.642,3.726-4.417
							c-0.291-0.775-1.861-0.902-5.426,0.438S156.28,246.462,156.571,247.237z"/>
						<path style="fill:#EC655B;" d="M185.608,256.061c0,0,4.948,0.649,6.301,1.629c1.294,0.937,1.361,4.131-0.839,4.594
							c-2.018,0.424-5.369,0.758-5.369,0.758L185.608,256.061z"/>
						<path style="fill:#EC655B;" d="M183.879,261.406c0,0,4.284,2.325,5.174,3.692c0.851,1.307-0.206,4.243-2.374,3.894
							c-1.988-0.32-5.161-1.19-5.161-1.19L183.879,261.406z"/>
					</g>
					<path style="fill:#F39B95;" d="M69.174,277.871c3.483,8.296,2.789,16.497-1.55,18.319c-4.339,1.821-10.679-3.427-14.162-11.723
						c-3.483-8.296-2.789-16.497,1.55-18.319C59.35,264.327,65.691,269.575,69.174,277.871z"/>
				</g>
				<g>
					<path style="fill:#5DA5DB;" d="M53.795,186.351c0,0-9.839-0.322-17.014,24.53c-7.175,24.852,1,54.017,1,54.017
						s29.176-3.116,49.449-14.041C87.23,250.857,83.491,186.789,53.795,186.351z"/>
					<g>
						<g>
							<path style="fill:#85BBE4;" d="M44.223,239.221c-1.884-20.107,4.442-40.542,17.357-56.066l0.768,0.64
								c-12.745,15.322-18.989,35.49-17.129,55.333L44.223,239.221z"/>
						</g>
						<g>
							<path style="fill:#85BBE4;" d="M83.732,235.082c-0.076-12.546-3.789-25.308-10.454-35.935
								c-2.076-3.311-5.015-7.396-9.348-9.623c-4.297-2.208-9.406-1.86-12.428,0.847l-0.667-0.745
								c3.323-2.977,8.896-3.385,13.552-0.991c4.549,2.339,7.594,6.563,9.738,9.981c6.861,10.938,10.529,23.546,10.607,36.46
								L83.732,235.082z"/>
						</g>
					</g>
				</g>
			</g>
			<g>
				<path style="fill:#242034;" d="M87.637,318.537c1.16-17.106,27.558-51.864,55.124-57.134
					c23.23-4.441,27.528,21.748,28.186,36.252c0.625,13.778-6.803,37.241-40.117,45.167
					C108.363,348.167,86.069,341.653,87.637,318.537z"/>
				<g>
					<g>
						<path style="fill:#474A68;" d="M104.46,340.12l-0.439-0.898c0.587-0.287,1.176-0.588,1.766-0.902l0.471,0.883
							C105.658,339.522,105.058,339.827,104.46,340.12z M108.02,338.221l-0.502-0.865c0.566-0.328,1.131-0.67,1.693-1.026
							l0.536,0.844C109.174,337.537,108.598,337.885,108.02,338.221z M111.433,336.065l-0.566-0.824
							c0.54-0.371,1.076-0.756,1.608-1.154l0.6,0.801C112.532,335.293,111.984,335.685,111.433,336.065z M114.665,333.639
							l-0.633-0.773c0.507-0.415,1.008-0.843,1.503-1.285l0.667,0.746C115.696,332.778,115.184,333.216,114.665,333.639z
							 M117.678,330.943l-0.699-0.715c0.468-0.458,0.928-0.929,1.381-1.414l0.731,0.682
							C118.627,329.993,118.156,330.476,117.678,330.943z M120.435,327.984l-0.763-0.647c0.422-0.499,0.836-1.012,1.241-1.537
							l0.793,0.609C121.291,326.949,120.868,327.474,120.435,327.984z M122.899,324.774l-0.822-0.57
							c0.372-0.536,0.734-1.086,1.085-1.649l0.849,0.529C123.651,323.661,123.28,324.225,122.899,324.774z M125.039,321.34
							l-0.873-0.486c0.317-0.569,0.624-1.152,0.92-1.748l0.896,0.443C125.679,320.16,125.364,320.757,125.039,321.34z"/>
					</g>
					<g>
						<path style="fill:#474A68;" d="M108.696,342.919l-0.44-0.898c0.588-0.287,1.176-0.588,1.766-0.902l0.471,0.883
							C109.894,342.321,109.294,342.626,108.696,342.919z M112.256,341.02l-0.502-0.865c0.566-0.329,1.131-0.671,1.694-1.027
							l0.535,0.846C113.41,340.335,112.833,340.685,112.256,341.02z M115.668,338.862l-0.566-0.824
							c0.54-0.371,1.076-0.756,1.608-1.154l0.6,0.801C116.767,338.091,116.219,338.483,115.668,338.862z M118.9,336.436
							l-0.633-0.773c0.507-0.415,1.008-0.843,1.502-1.285l0.667,0.746C119.931,335.576,119.419,336.014,118.9,336.436z
							 M121.914,333.742l-0.699-0.715c0.468-0.458,0.928-0.929,1.381-1.414l0.731,0.682
							C122.863,332.792,122.392,333.274,121.914,333.742z M124.671,330.782l-0.763-0.646c0.422-0.499,0.836-1.012,1.241-1.537
							l0.793,0.609C125.528,329.747,125.104,330.272,124.671,330.782z M127.135,327.573l-0.822-0.57
							c0.372-0.536,0.734-1.086,1.085-1.649l0.849,0.529C127.887,326.46,127.516,327.023,127.135,327.573z M129.275,324.139
							l-0.873-0.486c0.317-0.569,0.624-1.152,0.92-1.748l0.896,0.443C129.915,322.959,129.6,323.556,129.275,324.139z"/>
					</g>
				</g>
			</g>
			<path style="fill:#2E2844;" d="M243.484,316.195c-5.648,0.262-30.998,41.895-29.36,50.401c1.713,8.891,49.242,0.799,55.419-7.598
				C275.118,351.418,253.118,315.748,243.484,316.195z"/>
			<g>
				<g>
					<g>
						<path style="fill:#313455;" d="M126.1,279.939c0.877-25.967,46.112-27.046,51.29,6.385
							c9.435,11.514,28.91,26.03,63.959,26.246c15.602,0.096,32.909,32.023,31.655,47.188c-0.588,7.114-25.29,12.193-37.408,13.48
							C198.334,377.194,123.338,361.691,126.1,279.939z"/>
						<path style="fill:#565873;" d="M155.375,271.563c1.002,4.763-4.28,9.906-11.799,11.487c-7.518,1.582-14.425-0.997-15.427-5.76
							c-1.002-4.763,4.281-9.906,11.799-11.487C147.466,264.222,154.373,266.8,155.375,271.563z"/>
						<g>
							<g>
								<path style="fill:#828498;" d="M214.506,369.266l-0.982-0.152l0.157-0.988l0.975,0.152L214.506,369.266z M211.544,368.787
									c-0.663-0.115-1.321-0.231-1.975-0.352l0.182-0.984c0.649,0.12,1.304,0.236,1.963,0.35L211.544,368.787z M207.6,368.06
									c-0.661-0.13-1.315-0.265-1.965-0.401l0.206-0.979c0.646,0.137,1.297,0.27,1.953,0.399L207.6,368.06z M203.675,367.231
									c-0.657-0.148-1.309-0.3-1.955-0.454l0.233-0.973c0.641,0.154,1.288,0.304,1.941,0.45L203.675,367.231z M199.772,366.297
									c-0.653-0.166-1.299-0.336-1.94-0.509l0.26-0.965c0.637,0.171,1.28,0.339,1.928,0.505L199.772,366.297z M195.897,365.252
									c-0.647-0.185-1.289-0.373-1.924-0.565l0.288-0.957c0.631,0.189,1.269,0.376,1.912,0.56L195.897,365.252z M192.056,364.095
									c-0.642-0.205-1.277-0.413-1.907-0.623l0.317-0.949c0.625,0.21,1.256,0.416,1.894,0.619L192.056,364.095z M188.249,362.818
									c-0.635-0.225-1.265-0.452-1.887-0.684l0.349-0.938c0.618,0.229,1.241,0.455,1.872,0.678L188.249,362.818z M184.487,361.422
									c-0.628-0.245-1.25-0.493-1.864-0.745l0.379-0.926c0.61,0.25,1.226,0.496,1.849,0.739L184.487,361.422z M180.771,359.9
									c-0.62-0.267-1.232-0.536-1.838-0.809l0.41-0.912c0.601,0.271,1.208,0.538,1.822,0.801L180.771,359.9z M177.109,358.252
									c-0.609-0.287-1.212-0.579-1.808-0.873l0.443-0.897c0.59,0.292,1.187,0.58,1.792,0.865L177.109,358.252z M173.508,356.472
									c-0.599-0.311-1.19-0.623-1.774-0.94l0.476-0.879c0.579,0.313,1.165,0.623,1.76,0.932L173.508,356.472z M169.977,354.56
									c-0.588-0.332-1.168-0.668-1.74-1.006l0.51-0.861c0.566,0.336,1.14,0.668,1.721,0.996L169.977,354.56z M166.52,352.514
									c-0.574-0.354-1.14-0.713-1.698-1.074l0.543-0.84c0.553,0.357,1.113,0.712,1.681,1.064L166.52,352.514z M163.145,350.332
									c-0.56-0.379-1.11-0.76-1.653-1.142l0.576-0.817c0.538,0.379,1.084,0.756,1.637,1.131L163.145,350.332z M159.862,348.015
									c-0.544-0.401-1.079-0.805-1.605-1.21l0.61-0.793c0.52,0.401,1.05,0.801,1.588,1.198L159.862,348.015z M156.678,345.563
									c-0.527-0.424-1.044-0.85-1.553-1.276l0.644-0.766c0.503,0.423,1.015,0.843,1.536,1.263L156.678,345.563z M153.6,342.977
									c-0.508-0.446-1.007-0.894-1.497-1.343l0.676-0.736c0.484,0.443,0.977,0.887,1.48,1.327L153.6,342.977z M150.636,340.26
									c-0.488-0.469-0.967-0.939-1.436-1.407l0.707-0.707c0.464,0.465,0.938,0.929,1.421,1.392L150.636,340.26z M147.795,337.413
									c-0.467-0.489-0.924-0.979-1.372-1.47l0.738-0.674c0.442,0.484,0.895,0.969,1.357,1.454L147.795,337.413z M145.084,334.443
									c-0.445-0.511-0.88-1.021-1.305-1.531l0.769-0.641c0.419,0.504,0.85,1.009,1.29,1.514L145.084,334.443z M142.511,331.352
									c-0.423-0.531-0.834-1.061-1.234-1.588l0.797-0.605c0.396,0.521,0.802,1.045,1.22,1.57L142.511,331.352z M140.08,328.146
									c-0.398-0.55-0.785-1.099-1.16-1.643l0.824-0.567c0.37,0.539,0.752,1.08,1.145,1.624L140.08,328.146z M137.798,324.831
									c-0.372-0.569-0.733-1.136-1.081-1.696l0.85-0.527c0.344,0.555,0.7,1.113,1.069,1.677L137.798,324.831z M135.675,321.413
									c-0.347-0.59-0.68-1.172-1-1.747l0.873-0.486c0.317,0.567,0.646,1.144,0.989,1.726L135.675,321.413z M133.716,317.896
									c-0.32-0.607-0.625-1.206-0.915-1.793l0.896-0.443c0.288,0.579,0.589,1.17,0.905,1.771L133.716,317.896z M131.929,314.287
									c-0.292-0.628-0.567-1.241-0.826-1.838l0.918-0.398c0.255,0.589,0.526,1.194,0.814,1.814L131.929,314.287z M130.324,310.588
									c-0.263-0.652-0.505-1.28-0.728-1.88l0.938-0.348c0.22,0.592,0.459,1.21,0.718,1.854L130.324,310.588z M128.921,306.806
									c-0.235-0.694-0.44-1.339-0.618-1.924l0.957-0.291c0.175,0.577,0.376,1.21,0.608,1.895L128.921,306.806z M127.751,302.93
									c-0.332-1.269-0.46-1.975-0.465-2.005l0.984-0.177c0.001,0.007,0.127,0.703,0.448,1.93L127.751,302.93z"/>
							</g>
							<g>
								<path style="fill:#828498;" d="M212.384,365.371c-0.66-0.129-1.315-0.26-1.966-0.396l0.203-0.978
									c0.647,0.134,1.299,0.265,1.955,0.392L212.384,365.371z M208.454,364.552c-0.656-0.147-1.308-0.299-1.954-0.453l0.232-0.973
									c0.643,0.154,1.29,0.304,1.941,0.451L208.454,364.552z M204.552,363.615c-0.652-0.167-1.299-0.338-1.94-0.514l0.264-0.965
									c0.637,0.174,1.278,0.345,1.925,0.51L204.552,363.615z M200.679,362.557c-0.646-0.188-1.287-0.38-1.922-0.575l0.293-0.955
									c0.631,0.193,1.268,0.383,1.909,0.569L200.679,362.557z M196.841,361.377c-0.64-0.209-1.273-0.421-1.903-0.637l0.324-0.945
									c0.624,0.214,1.254,0.424,1.889,0.631L196.841,361.377z M193.045,360.074c-0.633-0.228-1.26-0.463-1.882-0.7l0.356-0.934
									c0.616,0.235,1.238,0.466,1.866,0.692L193.045,360.074z M189.292,358.644c-0.624-0.25-1.244-0.504-1.857-0.762l0.388-0.922
									c0.608,0.256,1.222,0.508,1.842,0.756L189.292,358.644z M185.589,357.089c-0.615-0.271-1.226-0.546-1.83-0.824l0.418-0.908
									c0.6,0.276,1.206,0.549,1.816,0.818L185.589,357.089z M181.943,355.409c-0.607-0.292-1.208-0.588-1.802-0.888l0.449-0.893
									c0.589,0.296,1.184,0.59,1.785,0.878L181.943,355.409z M178.356,353.603c-0.596-0.313-1.186-0.63-1.77-0.949l0.48-0.877
									c0.579,0.317,1.163,0.631,1.754,0.941L178.356,353.603z M174.835,351.673c-0.586-0.334-1.164-0.671-1.736-1.012l0.511-0.859
									c0.567,0.337,1.141,0.672,1.72,1.002L174.835,351.673z M171.381,349.62c-0.573-0.354-1.139-0.712-1.699-1.071l0.541-0.842
									c0.555,0.358,1.116,0.711,1.683,1.062L171.381,349.62z M168.004,347.447c-0.561-0.374-1.114-0.752-1.66-1.132l0.57-0.82
									c0.542,0.376,1.09,0.75,1.645,1.12L168.004,347.447z M164.704,345.154c-0.546-0.395-1.086-0.79-1.619-1.189l0.6-0.801
									c0.528,0.396,1.063,0.789,1.604,1.18L164.704,345.154z M161.488,342.746c-0.532-0.414-1.057-0.829-1.575-1.246l0.627-0.779
									c0.514,0.413,1.034,0.826,1.562,1.236L161.488,342.746z M158.36,340.227c-0.517-0.433-1.027-0.866-1.53-1.302l0.655-0.756
									c0.499,0.432,1.004,0.861,1.517,1.29L158.36,340.227z M155.322,337.597c-0.503-0.451-0.997-0.902-1.483-1.355l0.681-0.732
									c0.483,0.448,0.973,0.896,1.471,1.343L155.322,337.597z M152.38,334.861c-0.487-0.468-0.966-0.936-1.436-1.405l0.706-0.709
									c0.466,0.465,0.94,0.93,1.422,1.393L152.38,334.861z M149.534,332.026c-0.471-0.485-0.932-0.971-1.386-1.455l0.73-0.684
									c0.45,0.48,0.907,0.962,1.373,1.443L149.534,332.026z M146.789,329.091c-0.453-0.502-0.898-1.003-1.333-1.502l0.753-0.658
									c0.433,0.495,0.874,0.992,1.323,1.49L146.789,329.091z M144.146,326.064c-0.436-0.519-0.863-1.034-1.281-1.548l0.776-0.631
									c0.414,0.51,0.838,1.022,1.27,1.536L144.146,326.064z M141.611,322.944c-0.418-0.533-0.828-1.063-1.227-1.591l0.797-0.603
									c0.396,0.522,0.801,1.048,1.217,1.577L141.611,322.944z M139.185,319.741c-0.401-0.549-0.791-1.094-1.171-1.633l0.817-0.576
									c0.376,0.535,0.764,1.074,1.161,1.619L139.185,319.741z M136.871,316.454c-0.383-0.565-0.754-1.123-1.113-1.673l0.837-0.547
									c0.357,0.546,0.725,1.099,1.105,1.659L136.871,316.454z M134.673,313.089c-0.365-0.581-0.717-1.152-1.055-1.713l0.856-0.516
									c0.335,0.555,0.683,1.12,1.045,1.697L134.673,313.089z M132.594,309.646c-0.346-0.6-0.676-1.183-0.991-1.751l0.875-0.484
									c0.311,0.563,0.639,1.142,0.982,1.735L132.594,309.646z M130.645,306.124c-0.328-0.622-0.636-1.219-0.923-1.789l0.893-0.449
									c0.284,0.564,0.589,1.155,0.914,1.771L130.645,306.124z M128.837,302.525c-0.316-0.663-0.598-1.275-0.847-1.832l0.913-0.408
									c0.246,0.551,0.524,1.155,0.836,1.811L128.837,302.525z M127.19,298.836c-0.508-1.229-0.742-1.909-0.742-1.909l0.945-0.326
									c0.003,0.009,0.231,0.669,0.72,1.853L127.19,298.836z"/>
							</g>
						</g>
					</g>
					<path style="fill:#2E2844;" d="M243.484,316.195c-5.648,0.262-30.998,41.895-29.36,50.401
						c1.713,8.891,49.242,0.799,55.419-7.598C275.118,351.418,253.118,315.748,243.484,316.195z"/>
					<path style="fill:#E7392C;" d="M269.216,349.17l-37.674-19.543c-8.087,12.07-17.006,28.868-17.458,35.552
						c3.736,1.6,8.39,3.45,13.684,5.266c0.003,0,0.006,0,0.008,0l-0.01,0.005c14.82,5.084,34.608,9.857,53.028,7.829l1.771-22.184
						L269.216,349.17z"/>
				</g>
				<g>
					<path style="fill:#3B4A7A;" d="M209.112,337.422c0,0,14.597,37.69,76.092,43.327l0.906-19.69l-62.566-37.717L209.112,337.422z"
						/>
					<path style="fill:#181821;" d="M245.274,364.527c0,0-22.492-1.538-36.161-27.105c-13.67-25.567-4.375-41.278,5.902-49.181
						c10.277-7.903,55.405,24.359,63.713,59.59c0,0,15.092,1.256,20.178,11.717C303.99,370.009,290.584,399.179,245.274,364.527z"/>
				</g>
			</g>
			<g>
				<g>
					<path style="fill:#313455;" d="M241.135,193.393c-20.873,18.032-13.502,52.871,15.277,64.858
						c18.308,7.625,31.225,31.802,31.725,46.114c0.112,3.21-0.298,7.935,2.118,9.48c10.329,6.606,74.944-25.544,55.914-51.116
						C341.165,256.004,267.898,170.273,241.135,193.393z"/>
					<path style="fill:#565873;" d="M272.874,205.242c-1.093,3.339-7.898,4.109-15.2,1.72c-7.302-2.389-12.335-7.033-11.243-10.373
						s7.898-4.109,15.2-1.72C268.933,197.259,273.966,201.903,272.874,205.242z"/>
					<g>
						<g>
							<path style="fill:#828498;" d="M296.378,296.168l-1-0.027c0-0.004,0.004-0.143,0.004-0.402l-0.003-0.424l1-0.012l0.003,0.436
								C296.382,296.019,296.378,296.168,296.378,296.168z M295.313,293.33c-0.032-0.585-0.077-1.251-0.14-1.984l0.996-0.086
								c0.065,0.745,0.109,1.421,0.142,2.016L295.313,293.33z M294.97,289.366c-0.072-0.625-0.158-1.284-0.26-1.972l0.99-0.145
								c0.102,0.697,0.189,1.366,0.264,2.001L294.97,289.366z M294.391,285.432c-0.112-0.634-0.237-1.284-0.377-1.951l0.978-0.205
								c0.142,0.677,0.268,1.339,0.383,1.982L294.391,285.432z M293.578,281.542c-0.154-0.633-0.32-1.273-0.5-1.923l0.963-0.268
								c0.184,0.659,0.352,1.311,0.508,1.954L293.578,281.542z M292.516,277.717c-0.197-0.623-0.406-1.252-0.63-1.883l0.943-0.334
								c0.227,0.643,0.44,1.281,0.64,1.916L292.516,277.717z M291.189,273.978c-0.241-0.609-0.497-1.219-0.767-1.828l0.914-0.404
								c0.275,0.621,0.535,1.242,0.782,1.863L291.189,273.978z M289.583,270.357c-0.291-0.587-0.596-1.173-0.916-1.754l0.877-0.482
								c0.326,0.595,0.639,1.192,0.936,1.793L289.583,270.357z M287.676,266.895c-0.343-0.559-0.7-1.113-1.073-1.661l0.826-0.563
								c0.383,0.561,0.748,1.128,1.099,1.7L287.676,266.895z M285.451,263.63c-0.396-0.522-0.807-1.035-1.233-1.54l0.764-0.646
								c0.439,0.519,0.859,1.046,1.267,1.581L285.451,263.63z M282.905,260.62c-0.449-0.476-0.913-0.94-1.394-1.395l0.688-0.727
								c0.494,0.468,0.972,0.946,1.433,1.436L282.905,260.62z M280.043,257.915c-0.498-0.42-1.013-0.828-1.543-1.225l0.6-0.801
								c0.546,0.408,1.074,0.828,1.588,1.26L280.043,257.915z M276.888,255.561c-0.541-0.357-1.1-0.703-1.674-1.035l0.5-0.865
								c0.592,0.342,1.166,0.697,1.725,1.064L276.888,255.561z M273.482,253.591c-0.579-0.291-1.173-0.569-1.783-0.834l0.398-0.918
								c0.628,0.272,1.239,0.559,1.834,0.859L273.482,253.591z M269.863,252.007c-0.63-0.252-1.249-0.502-1.857-0.75l0.377-0.926
								c0.607,0.247,1.224,0.497,1.852,0.749L269.863,252.007z M266.152,250.49c-0.627-0.262-1.241-0.523-1.845-0.781l0.395-0.919
								c0.6,0.257,1.212,0.516,1.836,0.777L266.152,250.49z M262.47,248.91c-0.622-0.275-1.232-0.548-1.829-0.819l0.414-0.91
								c0.593,0.27,1.199,0.542,1.819,0.814L262.47,248.91z M258.82,247.249c-0.619-0.292-1.222-0.581-1.809-0.868l0.44-0.898
								c0.583,0.286,1.182,0.573,1.795,0.861L258.82,247.249z M255.217,245.482c-0.611-0.312-1.204-0.623-1.78-0.932l0.473-0.881
								c0.57,0.306,1.157,0.613,1.763,0.922L255.217,245.482z M251.676,243.58c-0.6-0.34-1.178-0.679-1.736-1.016l0.517-0.856
								c0.551,0.333,1.122,0.667,1.714,1.003L251.676,243.58z M248.231,241.495c-0.581-0.376-1.138-0.752-1.672-1.128l0.576-0.817
								c0.523,0.368,1.069,0.737,1.64,1.107L248.231,241.495z M244.934,239.168c-0.551-0.427-1.073-0.854-1.567-1.281l0.653-0.757
								c0.482,0.417,0.99,0.831,1.526,1.247L244.934,239.168z M241.872,236.515c-0.496-0.486-0.966-0.983-1.399-1.476l0.751-0.66
								c0.417,0.474,0.871,0.953,1.349,1.422L241.872,236.515z M239.191,233.453c-0.406-0.55-0.789-1.121-1.137-1.696l0.855-0.518
								c0.332,0.549,0.698,1.094,1.086,1.619L239.191,233.453z M237.081,229.959c-0.292-0.607-0.559-1.241-0.795-1.883l0.939-0.346
								c0.226,0.613,0.48,1.217,0.758,1.796L237.081,229.959z M235.666,226.132c-0.172-0.632-0.327-1.299-0.458-1.982l0.982-0.189
								c0.127,0.659,0.276,1.301,0.442,1.909L235.666,226.132z"/>
						</g>
						<g>
							<path style="fill:#828498;" d="M299.542,289.698c-0.004-0.294-0.024-0.98-0.103-1.978l0.996-0.078
								c0.086,1.085,0.104,1.79,0.107,2.042L299.542,289.698z M299.242,285.746c-0.072-0.603-0.162-1.262-0.273-1.967l0.988-0.156
								c0.113,0.719,0.205,1.391,0.277,2.006L299.242,285.746z M298.623,281.822c-0.121-0.624-0.257-1.272-0.412-1.943l0.975-0.225
								c0.157,0.683,0.297,1.343,0.42,1.977L298.623,281.822z M297.73,277.952c-0.168-0.622-0.351-1.259-0.55-1.906l0.955-0.295
								c0.203,0.659,0.39,1.308,0.56,1.941L297.73,277.952z M296.563,274.162c-0.215-0.613-0.444-1.233-0.69-1.859l0.932-0.365
								c0.25,0.638,0.483,1.27,0.702,1.895L296.563,274.162z M295.112,270.475c-0.264-0.597-0.541-1.196-0.835-1.798l0.898-0.439
								c0.3,0.613,0.583,1.225,0.851,1.833L295.112,270.475z M293.369,266.919c-0.311-0.574-0.64-1.146-0.983-1.718l0.858-0.516
								c0.352,0.583,0.685,1.169,1.005,1.755L293.369,266.919z M291.33,263.53c-0.362-0.542-0.739-1.083-1.134-1.618l0.805-0.594
								c0.404,0.549,0.791,1.102,1.161,1.657L291.33,263.53z M288.986,260.35c-0.412-0.507-0.84-1.007-1.283-1.502l0.744-0.668
								c0.455,0.507,0.892,1.021,1.314,1.539L288.986,260.35z M286.35,257.413c-0.46-0.463-0.935-0.918-1.427-1.365l0.674-0.74
								c0.504,0.459,0.99,0.926,1.462,1.4L286.35,257.413z M283.432,254.757c-0.503-0.414-1.022-0.819-1.557-1.214l0.596-0.805
								c0.548,0.406,1.079,0.821,1.596,1.245L283.432,254.757z M280.26,252.41c-0.541-0.359-1.098-0.71-1.67-1.052l0.512-0.859
								c0.586,0.35,1.156,0.71,1.711,1.077L280.26,252.41z M276.871,250.391c-0.574-0.305-1.162-0.6-1.766-0.885l0.428-0.904
								c0.617,0.292,1.219,0.594,1.807,0.906L276.871,250.391z M273.302,248.704c-0.49-0.204-0.989-0.402-1.499-0.593l-0.345-0.13
								l0.352-0.936l0.347,0.13c0.518,0.194,1.028,0.396,1.53,0.605L273.302,248.704z M269.585,247.266
								c-0.634-0.246-1.255-0.49-1.865-0.733l0.371-0.929c0.607,0.242,1.226,0.485,1.855,0.729L269.585,247.266z M265.86,245.779
								c-0.63-0.259-1.246-0.518-1.85-0.775l0.393-0.92c0.6,0.256,1.212,0.513,1.838,0.771L265.86,245.779z M262.171,244.202
								c-0.624-0.277-1.233-0.554-1.828-0.829l0.42-0.907c0.591,0.273,1.194,0.547,1.814,0.822L262.171,244.202z M258.528,242.513
								c-0.615-0.299-1.215-0.597-1.799-0.895l0.455-0.891c0.578,0.295,1.172,0.591,1.781,0.887L258.528,242.513z M254.947,240.682
								c-0.604-0.327-1.189-0.653-1.757-0.979l0.498-0.867c0.562,0.323,1.14,0.645,1.735,0.968L254.947,240.682z M251.459,238.673
								c-0.586-0.361-1.151-0.722-1.699-1.085l0.553-0.834c0.538,0.357,1.094,0.712,1.671,1.067L251.459,238.673z M248.099,236.441
								c-0.559-0.401-1.097-0.806-1.615-1.213l0.618-0.786c0.508,0.399,1.034,0.794,1.581,1.188L248.099,236.441z M244.922,233.942
								c-0.52-0.45-1.019-0.903-1.498-1.362l0.691-0.723c0.468,0.448,0.954,0.89,1.461,1.329L244.922,233.942z"/>
						</g>
					</g>
					<path style="fill:#2E2844;" d="M291.474,311.318c2.084,3.077,12.796-0.062,18.928-2.716
						c9.594-4.153,41.104-23.268,37.234-37.764c-1.988-7.446-6.998-12.336-11.573-16.035
						C329.971,249.875,288.973,307.627,291.474,311.318z"/>
					<path style="fill:#E7392C;" d="M318.255,269.988c-10.016,12.164-21.143,28.35-25.249,36.447c0,0,6.84,22.435,25.706,31.189
						l22.179-24.459C340.891,313.165,322.17,278.326,318.255,269.988z"/>
				</g>
				<g>
					<path style="fill:#3B4A7A;" d="M317.174,344.156c0,0-21.216-10.751-15.597-32.884c0,0,2.865-9.067,9.785-13.304
						c-1.383-28.926,5.103-55.61,24.568-70.522L317.174,344.156z"/>
					<path style="fill:#181821;" d="M355.126,307.419c0,0,17.603-14.084,14.262-42.883c-3.341-28.798-19.933-36.41-32.882-37.045
						c-12.949-0.636-31.639,51.595-18.384,85.278c0,0-11.685,9.635-9.9,21.129C310.007,345.391,337.648,361.717,355.126,307.419z"/>
				</g>
			</g>
		</g>
	</g>
	<g>
		<g>
			
				<ellipse transform="matrix(0.9892 -0.1467 0.1467 0.9892 -66.1213 18.4685)" style="fill:#242034;" cx="92.11" cy="457.374" rx="66.878" ry="24.129"/>
			<path style="fill:#242034;" d="M173.643,442.816c-1.489-14.47-34.214-21.778-73.753-16.745c33.628-2.94,59.806,2.257,60.8,12.88
				c1.121,11.973-30.166,26.297-69.881,31.993c-26.646,3.822-50.3,2.782-63.331-1.928c8.058,11.337,38.945,16.344,74.85,11.231
				C143.242,474.421,175.171,457.662,173.643,442.816z"/>
		</g>
		<g>
			<g>
				<ellipse style="fill:#565873;" cx="58.197" cy="469.402" rx="30.895" ry="11.399"/>
				<path style="fill:#EC655B;" d="M24.576,391.202v73.365c0,6.851,15.053,12.405,33.621,12.405
					c18.568,0,33.621-5.554,33.621-12.405v-73.365H24.576z"/>
				<path style="fill:#A9AAB8;" d="M58.197,378.797c-18.568,0-33.621,5.554-33.621,12.405v73.365
					c0,6.851,15.053,12.405,33.621,12.405c18.568,0,33.621-5.554,33.621-12.405v-73.365
					C91.818,384.351,76.766,378.797,58.197,378.797z"/>
				<path style="fill:#D4D5DC;" d="M46.083,388.331c-8.181,0-15.677,1.079-21.506,2.871l0,0v73.365
					c0,6.851,15.053,12.405,33.621,12.405c8.181,0,15.677-1.079,21.506-2.871v-73.365C79.703,393.885,64.651,388.331,46.083,388.331
					z"/>
				<path style="fill:#EC655B;" d="M46.435,476.19c-0.158-35.555-10.99-37.505-10.99-81.029h-8.143c0,0,1.946,17.717,9.67,38.272
					c6.062,16.134,1.668,33.76-0.503,40.597C39.402,474.948,42.765,475.684,46.435,476.19z"/>
				<ellipse style="fill:#838498;" cx="58.197" cy="391.202" rx="33.621" ry="12.405"/>
				<path style="fill:#A9AAB8;" d="M58.197,403.607c8.181,0,15.677-1.079,21.506-2.871v0c0-6.851-15.052-12.405-33.621-12.405
					c-8.181,0-15.677,1.079-21.506,2.871l0,0C24.576,398.053,39.629,403.607,58.197,403.607z"/>
				<ellipse style="fill:#565873;" cx="58.197" cy="384.754" rx="30.895" ry="11.399"/>
				<ellipse style="fill:#A9AAB8;" cx="58.197" cy="378.797" rx="33.621" ry="12.405"/>
				<ellipse style="fill:#D4D5DC;" cx="58.197" cy="380.134" rx="30.895" ry="10.171"/>
				<path style="fill:#181821;" d="M83.154,378.5c0,2.129-5.243,3.855-11.71,3.855s-11.71-1.726-11.71-3.855
					s5.243-3.855,11.71-3.855S83.154,376.371,83.154,378.5z"/>
			</g>
			<g>
				<g>
					<path style="fill:#E7392C;" d="M63.156,382.84c0-2.397-6.234-4.34-13.925-4.34c-7.69,0-13.924,1.943-13.924,4.34
						s6.234,4.34,13.924,4.34c1.636,0,3.198-0.092,4.656-0.254c-0.102,0.102-0.172,0.208-0.172,0.32
						c0,0.599,1.559,1.085,3.481,1.085c1.923,0,3.481-0.486,3.481-1.085c0-0.507-1.121-0.929-2.628-1.048
						C61.166,385.402,63.156,384.193,63.156,382.84z"/>
					<ellipse style="fill:#E7392C;" cx="41.627" cy="375.525" rx="6.962" ry="2.17"/>
					<ellipse style="fill:#EC655B;" cx="39.145" cy="374.645" rx="1.919" ry="0.639"/>
				</g>
				<ellipse style="fill:#EC655B;" cx="45.77" cy="381.19" rx="6.624" ry="1.608"/>
				<ellipse style="fill:#EC655B;" cx="55.867" cy="386.756" rx="1.381" ry="0.466"/>
			</g>
		</g>
	</g>
	<g>
		<g>
			
				<ellipse transform="matrix(0.9982 -0.0607 0.0607 0.9982 -25.0664 15.4894)" style="fill:#242034;" cx="242.279" cy="420.104" rx="40.22" ry="15.988"/>
			<path style="fill:#242034;" d="M279.883,402.268c-6.247-2.023-13.698-3.153-21.5-3.453c5.168,0.429,10.044,1.209,14.332,2.367
				c18.189,4.913,18.97,14.689,1.743,21.836c-17.227,7.146-45.937,8.956-64.127,4.043c-2.491-0.673-4.643-1.44-6.48-2.276
				c2.236,2.931,6.463,5.571,12.679,7.584c18.6,6.024,47.86,4.168,65.354-4.144C299.379,419.914,298.482,408.292,279.883,402.268z"
				/>
		</g>
		<g>
			<g>
				<path style="fill:#EC655B;" d="M254.295,398.924l-0.008,0.007c-2.842,2.518-4.096,6.378-3.277,10.086l0.002,0.011l-0.001,0
					c-3.786,0.365-7.075,2.756-8.59,6.244l-0.001,0.001l0,0c-3.278-1.932-7.346-1.932-10.624,0l0,0l0,0
					c-1.516-3.489-4.806-5.88-8.592-6.245l0,0c0,0-3.287-3.964-3.282-10.104c0.002-2.343-0.209-5.885,3.283-10.104
					c3.492-4.219,8.592-6.246,8.592-6.246l0,0c3.278,1.932,7.346,1.932,10.624,0l0,0l0.001,0.001
					c1.516,3.488,4.805,5.879,8.59,6.244l0.001,0l-0.002,0.011c-0.819,3.708,0.435,7.568,3.277,10.086L254.295,398.924z"/>
				<g>
					<path style="fill:#F39B95;" d="M249.949,400.271l-0.011,0.016c-1.708,2.442-2.649,5.337-2.702,8.316l0,0.02l-0.004,0.001
						c-2.827,0.973-5.298,2.769-7.096,5.158l-0.003,0.004v0c-2.862-0.878-5.921-0.878-8.783,0l0,0l-0.003-0.004
						c-1.797-2.389-4.268-4.185-7.095-5.158l-0.005-0.001l0-0.019c-0.053-2.979-0.994-5.875-2.702-8.317l-0.011-0.016l0.011-0.016
						c1.708-2.442,2.648-5.337,2.702-8.316l0-0.02l0.004-0.002c2.827-0.972,5.298-2.769,7.096-5.158l0.003-0.004l0,0
						c2.862,0.878,5.921,0.878,8.783,0h0l0.003,0.004c1.797,2.389,4.268,4.185,7.095,5.158l0.005,0.001l0,0.019
						c0.053,2.979,0.994,5.875,2.702,8.317L249.949,400.271z"/>
					<path style="fill:#F07C74;" d="M231.348,413.783l0.003,0.004l0,0c2.862-0.878,5.921-0.878,8.783,0l0.003-0.004
						c1.793-2.384,4.258-4.177,7.077-5.151l0.023-0.028c0.053-2.979,0.994-5.875,2.702-8.316
						C249.938,400.287,238.571,395.945,231.348,413.783z"/>
				</g>
				<path style="fill:#E7392C;" d="M245.851,414.185l-0.008,0.006c-3.987,2.861-5.651,7.981-4.107,12.639l0.004,0.01h0
					c-4.913-0.032-9.275,3.139-10.761,7.822l0,0c0,0-7.666,1.674-13.307,0c-5.641-1.674-10.762-7.822-10.762-7.822l0.003-0.01
					c1.544-4.658-0.12-9.779-4.107-12.64l-0.008-0.006c0,0,0.641-7.712,4.112-12.656c3.471-4.943,10.762-7.822,10.762-7.822l0,0
					c3.956,2.916,9.35,2.916,13.307,0l0,0l0,0.001c1.486,4.683,5.848,7.853,10.761,7.822h0l-0.003,0.01
					c-1.544,4.658,0.12,9.779,4.107,12.64L245.851,414.185z"/>
				<path style="fill:#313455;" d="M225.304,414.728L225.304,414.728c-2.234,1.199-4.065,3.029-5.263,5.263l0,0l0,0
					c-1.199-2.234-3.03-4.065-5.263-5.263l0,0l0,0c2.234-1.199,4.065-3.029,5.263-5.263l0,0l0,0
					C221.239,411.698,223.07,413.529,225.304,414.728L225.304,414.728z"/>
			</g>
			<path style="fill:#F39B95;" d="M217.696,408.558c0.696,0.918,0.03,2.596-1.489,3.748c-1.519,1.152-3.314,1.341-4.011,0.423
				c-0.696-0.918-0.03-2.596,1.489-3.748C215.204,407.829,216.999,407.639,217.696,408.558z"/>
			<path style="fill:#F39B95;" d="M226.178,417.077c0.619,0.619,0.291,1.951-0.733,2.974c-1.024,1.024-2.355,1.352-2.974,0.733
				s-0.291-1.951,0.733-2.974C224.228,416.787,225.559,416.458,226.178,417.077z"/>
			<path style="fill:#F39B95;" d="M217.346,422.854c-1.085,0.823-2.898,0.259-4.05-1.26c-1.152-1.519-1.206-3.417-0.121-4.24
				c1.085-0.823,2.898-0.258,4.05,1.26C218.376,420.133,218.431,422.031,217.346,422.854z"/>
			<path style="fill:#EC655B;" d="M228.809,412.08c-1.702,1.291-4.015,1.106-5.167-0.413s-0.706-3.796,0.996-5.087
				c1.702-1.291,4.015-1.106,5.167,0.413C230.957,408.512,230.511,410.789,228.809,412.08z"/>
		</g>
	</g>
	
	<g class="anime">
		
			<ellipse transform="matrix(0.2265 -0.974 0.974 0.2265 114.8814 565.3365)" style="fill:#EE6881;" cx="413.4" cy="210.334" rx="33.068" ry="33.068"/>
		<g>
			<path style="fill:#EE6881;" d="M413.399,249.6c-21.651,0-39.266-17.615-39.266-39.266c0-21.651,17.614-39.266,39.266-39.266
				s39.267,17.615,39.267,39.266C452.666,231.985,435.051,249.6,413.399,249.6z M413.399,171.814c-21.24,0-38.52,17.28-38.52,38.52
				c0,21.24,17.279,38.52,38.52,38.52s38.521-17.28,38.521-38.52C451.92,189.094,434.64,171.814,413.399,171.814z"/>
		</g>
		<g>
			<path style="fill:#EE6881;" d="M413.399,250.719v-2.983c20.623,0,37.402-16.778,37.402-37.401h2.982
				C453.784,232.602,435.668,250.719,413.399,250.719z"/>
		</g>
		<g>
			<path style="fill:#EE6881;" d="M375.998,210.335h-2.982c0-22.268,18.116-40.385,40.384-40.385v2.983
				C392.776,172.933,375.998,189.711,375.998,210.335z"/>
		</g>
		<g>
			<g>
				<rect x="398.855" y="217.463" style="fill:#80559D;" width="14.016" height="14.016"/>
				<polygon style="fill:#242034;" points="402.074,220.683 398.855,217.463 398.855,231.479 412.871,231.479 409.652,228.26 				
					"/>
				<rect x="402.074" y="220.683" style="fill:#9D77B5;" width="7.577" height="7.577"/>
			</g>
			<g>
				<rect x="398.855" y="203.447" style="fill:#80559D;" width="14.016" height="14.016"/>
				<polygon style="fill:#242034;" points="402.074,206.667 398.855,203.447 398.855,217.463 412.871,217.463 409.652,214.244 				
					"/>
				<rect x="402.074" y="206.667" style="fill:#9D77B5;" width="7.577" height="7.577"/>
			</g>
			<g>
				<rect x="412.871" y="203.447" style="fill:#80559D;" width="14.016" height="14.016"/>
				<polygon style="fill:#242034;" points="416.09,206.667 412.871,203.447 412.871,217.463 426.887,217.463 423.668,214.244 				
					"/>
				<rect x="416.09" y="206.667" style="fill:#9D77B5;" width="7.577" height="7.577"/>
			</g>
			<g>
				<rect x="412.871" y="189.431" style="fill:#80559D;" width="14.016" height="14.016"/>
				<polygon style="fill:#242034;" points="416.09,192.65 412.871,189.431 412.871,203.447 426.887,203.447 423.668,200.228 				"/>
				<rect x="416.09" y="192.65" style="fill:#9D77B5;" width="7.577" height="7.577"/>
			</g>
		</g>
	</g>
	<g class='anime1'>
		
			<ellipse transform="matrix(0.2107 -0.9776 0.9776 0.2107 273.8537 523.6179)" style="fill:#181821;" cx="461.177" cy="92.225" rx="20.74" ry="20.74"/>
		<g>
			<path style="fill:#181821;" d="M461.177,119.417c-14.994,0-27.191-12.198-27.191-27.192s12.197-27.192,27.191-27.192
				c14.994,0,27.191,12.198,27.191,27.192S476.171,119.417,461.177,119.417z M461.177,65.491c-14.741,0-26.734,11.993-26.734,26.734
				s11.993,26.734,26.734,26.734c14.741,0,26.734-11.993,26.734-26.734S475.918,65.491,461.177,65.491z"/>
		</g>
		<g>
			<path style="fill:#181821;" d="M435.13,92.225h-1.832c0-15.373,12.507-27.879,27.879-27.879v1.832
				C446.814,66.178,435.13,77.863,435.13,92.225z"/>
		</g>
		<g>
			<path style="fill:#181821;" d="M461.177,120.104v-1.832c14.362,0,26.047-11.685,26.047-26.047h1.832
				C489.056,107.598,476.549,120.104,461.177,120.104z"/>
		</g>
		<g>
			<g>
				<path style="fill:#5DA5DB;" d="M471.267,82.135c-2.582-2.582-6.15-4.18-10.09-4.18c-7.881,0-14.27,6.389-14.27,14.27
					s6.389,14.27,14.27,14.27c3.94,0,7.508-1.597,10.09-4.18l-10.09-10.09L471.267,82.135z"/>
			</g>
			<circle style="fill:#181821;" cx="461.132" cy="85.34" r="1.923"/>
		</g>
	</g>
	<g class='anime2'>
		<circle style="fill:#313455;" cx="242.852" cy="74.692" r="44.837"/>
		<g>
			<path style="fill:#313455;" d="M242.852,128.653c-29.755,0-53.962-24.207-53.962-53.961c0-29.755,24.207-53.962,53.962-53.962
				c29.755,0,53.962,24.207,53.962,53.962C296.814,104.446,272.606,128.653,242.852,128.653z M242.852,21.73
				c-29.203,0-52.962,23.759-52.962,52.962s23.759,52.961,52.962,52.961c29.203,0,52.962-23.758,52.962-52.961
				S272.055,21.73,242.852,21.73z"/>
		</g>
		<g>
			<path style="fill:#313455;" d="M191.39,74.692h-4c0-30.582,24.88-55.462,55.462-55.462v4
				C214.476,23.23,191.39,46.316,191.39,74.692z"/>
		</g>
		<g>
			<path style="fill:#313455;" d="M242.852,130.153v-4c28.376,0,51.462-23.085,51.462-51.461h4
				C298.314,105.273,273.434,130.153,242.852,130.153z"/>
		</g>
		<g>
			<path style="fill:#E3C5DE;" d="M242.852,105.453L242.852,105.453c-6.105,0-10.802-5.397-9.959-11.443l2.053-14.728
				c0.55-3.944,3.923-6.88,7.906-6.88l0,0c3.983,0,7.356,2.936,7.906,6.88l2.053,14.728
				C253.653,100.056,248.957,105.453,242.852,105.453z"/>
			<path style="fill:#D08EBE;" d="M234.946,79.281l-0.177,1.267c4.812,2.031,10.417,3.843,16.895,5.236l-0.907-6.503
				c-0.55-3.944-3.923-6.88-7.906-6.88S235.496,75.337,234.946,79.281z"/>
			<path style="fill:#E7392C;" d="M212.091,74.692c0-16.989,13.772-30.761,30.761-30.761s30.761,13.772,30.761,30.761
				c0,0-11.069,6.485-30.761,6.485S212.091,74.692,212.091,74.692z"/>
			<ellipse style="fill:#F9F3F8;" cx="238.497" cy="94.225" rx="4.029" ry="7.229"/>
			<path style="fill:#EC655B;" d="M251.424,52.494c-2.736-5.627-12.297-6.617-21.354-2.212
				c-9.057,4.405-14.181,12.537-11.444,18.163c2.737,5.627,12.297,6.617,21.354,2.212C249.036,66.253,254.16,58.121,251.424,52.494z
				"/>
			<path style="fill:#F39B95;" d="M241.888,51.332c-1.694-3.484-7.614-4.097-13.223-1.37s-8.781,7.763-7.086,11.247
				c1.694,3.484,7.614,4.097,13.223,1.37C240.41,59.851,243.583,54.816,241.888,51.332z"/>
			<path style="fill:#FCE4E1;" d="M256.519,47.134c-1.114,1.722-1.767,3.77-1.767,5.974c0,6.088,4.936,11.024,11.024,11.024
				c1.969,0,3.813-0.522,5.413-1.427C268.318,55.926,263.082,50.395,256.519,47.134z"/>
			<path style="fill:#FCE4E1;" d="M217.54,64.132c0-1.702-0.551-3.272-1.477-4.553c-2.03,3.591-3.365,7.626-3.808,11.928
				C215.327,70.46,217.54,67.557,217.54,64.132z"/>
			<path style="fill:#FCE4E1;" d="M237.329,81.001c1.758,0.112,3.598,0.175,5.523,0.175c12.464,0,21.468-2.597,26.402-4.504
				c-2.67-5.79-8.51-9.817-15.303-9.817C245.565,66.856,238.63,72.984,237.329,81.001z"/>
		</g>
	</g>
	<g>
		<g>
			<g>
				<path style="fill:#D4E7F6;" d="M448.611,468.567h-74.5c-11.732,0-21.243-9.511-21.243-21.243v0
					c0-11.732,9.511-21.243,21.243-21.243h74.5c11.732,0,21.243,9.511,21.243,21.243v0
					C469.854,459.056,460.344,468.567,448.611,468.567z"/>
				<path style="fill:#F6FAFD;" d="M461.751,436.184c2.554,3.008,4.104,6.894,4.104,11.139c0,9.508-7.735,17.243-17.243,17.243
					h-74.5c-4.246,0-8.132-1.55-11.139-4.104c3.165,3.728,7.877,6.104,13.139,6.104h74.5c9.508,0,17.243-7.735,17.243-17.243
					C467.855,444.061,465.479,439.35,461.751,436.184z"/>
				<path style="fill:#9EC9E9;" d="M358.868,449.324c0-9.508,7.735-17.243,17.243-17.243h74.5c4.246,0,8.132,1.55,11.139,4.104
					c-3.165-3.728-7.877-6.104-13.139-6.104h-74.5c-9.508,0-17.243,7.735-17.243,17.243c0,5.262,2.376,9.974,6.104,13.139
					C360.418,457.455,358.868,453.569,358.868,449.324z"/>
			</g>
			<text transform="matrix(1 0 0 1 382.3469 420.3935)" style="fill:#C4DEF2; font-family:'Versa-Versa'; font-size:14px;">Top Score</text>
			<text transform="matrix(1 0 0 1 380.5822 457.1781)" style="fill:#9EC9E9; font-family:'Versa-Versa'; font-size:30px;">5700</text>
		</g>
	</g>
	<g>
		<g>
			<g>
				<circle style="fill:#D4E7F6;" cx="328.335" cy="151.477" r="35.325"/>
				<path style="fill:#9EC9E9;" d="M330.654,180.044c-15.777,0-28.567-12.79-28.567-28.567c0-15.777,12.79-28.567,28.567-28.567
					c6.325,0,12.168,2.06,16.901,5.539c-5.205-4.349-11.905-6.97-19.219-6.97c-16.567,0-29.998,13.43-29.998,29.998
					s13.43,29.998,29.998,29.998c7.314,0,14.014-2.62,19.219-6.969C342.821,177.984,336.979,180.044,330.654,180.044z"/>
				<path style="fill:#F6FAFD;" d="M329.224,121.479c-0.149,0-0.296,0.009-0.444,0.011c16.361,0.239,29.553,13.568,29.553,29.986
					s-13.192,29.748-29.553,29.986c0.148,0.002,0.295,0.011,0.444,0.011c16.567,0,29.998-13.43,29.998-29.998
					C359.221,134.909,345.791,121.479,329.224,121.479z"/>
				<path style="fill:#9EC9E9;" d="M329.613,174.195c-1.752-11.152-10.561-19.961-21.712-21.712c-0.376-0.059-0.376-0.576,0-0.635
					c11.152-1.752,19.961-10.561,21.712-21.712c0.059-0.376,0.576-0.376,0.635,0c1.752,11.152,10.561,19.961,21.712,21.712
					c0.376,0.059,0.376,0.576,0,0.635c-11.152,1.752-19.961,10.561-21.712,21.712C330.189,174.571,329.672,174.571,329.613,174.195z
					"/>
				<path style="fill:#D4E7F6;" d="M328.054,171.02c-1.554-9.893-9.369-17.708-19.262-19.262c-0.333-0.052-0.333-0.511,0-0.563
					c9.893-1.554,17.708-9.369,19.262-19.262c0.052-0.333,0.511-0.333,0.563,0c1.554,9.893,9.369,17.708,19.262,19.262
					c0.333,0.052,0.333,0.511,0,0.563c-9.893,1.554-17.708,9.369-19.262,19.262C328.565,171.353,328.106,171.353,328.054,171.02z"/>
				<path style="fill:#F6FAFD;" d="M328.617,131.933c-0.052-0.333-0.511-0.333-0.563,0c-1.554,9.893-9.369,17.708-19.262,19.262
					c-0.333,0.052-0.333,0.511,0,0.564c5.055,0.794,9.56,3.229,12.971,6.734l13.588-13.588
					C331.846,141.493,329.411,136.988,328.617,131.933z"/>
			</g>
			<text transform="matrix(1 0 0 1 315.5318 208.0063)" style="fill:#C4DEF2; font-family:'Versa-Versa'; font-size:15.6236px;">95%</text>
		</g>
	</g>
	<g>
		<g>
			<g>
				<path style="fill:#D4E7F6;" d="M144.841,80.119l-2.882,2.882l-2.882-2.882c-4.171-4.171-10.934-4.171-15.105,0l0,0
					c-4.171,4.171-4.171,10.933,0,15.104l17.987,17.987l17.987-17.987c4.171-4.171,4.171-10.933,0-15.104l0,0
					C155.775,75.948,149.012,75.948,144.841,80.119z"/>
				<path style="fill:#F6FAFD;" d="M125.155,82.573c2.76-2.047,7.492-0.344,10.57,3.805c3.078,4.149,3.336,9.172,0.576,11.22
					s-7.492,0.344-10.57-3.805C122.654,89.643,122.396,84.62,125.155,82.573z"/>
			</g>
			<text transform="matrix(1 0 0 1 129.9019 129.9148)" style="fill:#C4DEF2; font-family:'Versa-Versa'; font-size:12px;">100%</text>
		</g>
	</g>
</g>
</svg>
